<svg width="194" height="57" viewBox="0 0 194 57" fill="none" xmlns="http://www.w3.org/2000/svg">
<path d="M194 51.2863C194 54.443 191.503 57 188.414 57H5.59377C2.5062 57 0 54.443 0 51.2863V5.72118C0 2.56595 2.5062 0 5.59377 0H188.412C191.503 0 193.999 2.56595 193.999 5.72118L194 51.2863Z" fill="#242424"/>
<path d="M42.6916 26.6964C42.6494 22.1747 46.5265 19.9749 46.7038 19.8725C44.508 16.7818 41.1047 16.3596 39.9087 16.3259C37.0503 16.0355 34.2776 17.9771 32.8215 17.9771C31.3364 17.9771 29.0941 16.3539 26.6775 16.4016C23.5677 16.4479 20.6584 18.1862 19.0628 20.8854C15.7699 26.3892 18.2258 34.4771 21.3806 38.9259C22.9588 41.1046 24.8029 43.5373 27.2166 43.4517C29.578 43.3577 30.4601 41.9983 33.3098 41.9983C36.1333 41.9983 36.9616 43.4517 39.4233 43.397C41.9577 43.3577 43.5533 41.2084 45.0762 39.01C46.9 36.5128 47.6324 34.0534 47.6614 33.9272C47.6019 33.9075 42.7395 32.116 42.6916 26.6964Z" fill="white"/>
<path d="M38.0414 13.3993C39.3114 11.8659 40.1805 9.77976 39.9392 7.66272C38.1009 7.74128 35.802 8.89029 34.4782 10.39C33.3069 11.7116 32.2606 13.8777 32.5309 15.9148C34.5959 16.0635 36.7161 14.9089 38.0414 13.3993Z" fill="white"/>
<path d="M76.8661 43.1388H73.5659L71.7581 37.6548H65.4746L63.7525 43.1388H60.5396L66.765 24.4685H70.6101L76.8661 43.1388ZM71.2132 35.3539L69.5784 30.4787C69.4054 29.9807 69.0814 28.8078 68.6033 26.9615H68.5451C68.3548 27.7556 68.0481 28.9285 67.6267 30.4787L66.021 35.3539H71.2132Z" fill="white"/>
<path d="M92.8756 36.2427C92.8756 38.5323 92.2348 40.3421 90.9531 41.6706C89.8051 42.8533 88.3795 43.444 86.6778 43.444C84.841 43.444 83.5215 42.807 82.7179 41.5331H82.6598V48.625H79.5616V34.1088C79.5616 32.6694 79.5223 31.1921 79.4468 29.6769H82.1715L82.3444 31.8108H82.4026C83.4358 30.203 85.0037 29.4005 87.108 29.4005C88.753 29.4005 90.1262 30.0276 91.2248 31.2833C92.3263 32.5403 92.8756 34.193 92.8756 36.2427ZM89.7193 36.3521C89.7193 35.0417 89.4142 33.9615 88.8009 33.1113C88.131 32.2246 87.2315 31.7813 86.1038 31.7813C85.3394 31.7813 84.6448 32.0282 84.0243 32.515C83.4023 33.0061 82.9954 33.6472 82.8051 34.4413C82.7092 34.8117 82.6612 35.1147 82.6612 35.3532V37.5979C82.6612 38.5772 82.9722 39.4035 83.5942 40.0783C84.2161 40.7531 85.0241 41.0898 86.0181 41.0898C87.185 41.0898 88.0932 40.6549 88.7428 39.7879C89.3938 38.9195 89.7193 37.7747 89.7193 36.3521Z" fill="white"/>
<path d="M108.915 36.2427C108.915 38.5323 108.274 40.3421 106.991 41.6706C105.844 42.8533 104.419 43.444 102.717 43.444C100.88 43.444 99.5606 42.807 98.7584 41.5331H98.7003V48.625H95.6021V34.1088C95.6021 32.6694 95.5629 31.1921 95.4873 29.6769H98.212L98.385 31.8108H98.4431C99.4748 30.203 101.043 29.4005 103.148 29.4005C104.792 29.4005 106.165 30.0276 107.267 31.2833C108.364 32.5403 108.915 34.193 108.915 36.2427ZM105.758 36.3521C105.758 35.0417 105.452 33.9615 104.839 33.1113C104.169 32.2246 103.272 31.7813 102.143 31.7813C101.377 31.7813 100.684 32.0282 100.062 32.515C99.44 33.0061 99.0345 33.6472 98.8442 34.4413C98.7497 34.8117 98.7003 35.1147 98.7003 35.3532V37.5979C98.7003 38.5772 99.0113 39.4035 99.6303 40.0783C100.252 40.7517 101.06 41.0898 102.057 41.0898C103.224 41.0898 104.132 40.6549 104.782 39.7879C105.433 38.9195 105.758 37.7747 105.758 36.3521Z" fill="white"/>
<path d="M126.847 37.9035C126.847 39.4916 126.276 40.7837 125.129 41.7812C123.869 42.8713 122.115 43.4156 119.861 43.4156C117.78 43.4156 116.112 43.0284 114.849 42.2526L115.567 39.7595C116.927 40.5536 118.42 40.952 120.046 40.952C121.213 40.952 122.121 40.6967 122.774 40.1888C123.423 39.681 123.747 38.9992 123.747 38.149C123.747 37.3914 123.48 36.753 122.944 36.2354C122.41 35.7177 121.519 35.2365 120.276 34.7917C116.89 33.5726 115.198 31.7866 115.198 29.4381C115.198 27.9033 115.791 26.6448 116.978 25.6656C118.161 24.6849 119.739 24.1953 121.713 24.1953C123.473 24.1953 124.934 24.4913 126.101 25.082L125.327 27.5203C124.237 26.9479 123.005 26.6617 121.626 26.6617C120.536 26.6617 119.684 26.9212 119.074 27.4375C118.558 27.8991 118.299 28.4617 118.299 29.1281C118.299 29.866 118.594 30.4763 119.187 30.9561C119.703 31.3994 120.64 31.8792 122 32.3969C123.664 33.0437 124.887 33.7998 125.673 34.6669C126.456 35.5311 126.847 36.6127 126.847 37.9035Z" fill="white"/>
<path d="M137.091 31.9212H133.676V38.4575C133.676 40.1199 134.277 40.9505 135.483 40.9505C136.037 40.9505 136.496 40.9042 136.859 40.8116L136.945 43.083C136.335 43.3032 135.531 43.4141 134.536 43.4141C133.312 43.4141 132.356 43.0535 131.666 42.3338C130.978 41.6127 130.633 40.4033 130.633 38.7044V31.9184H128.598V29.6736H130.633V27.2087L133.676 26.322V29.6736H137.091V31.9212Z" fill="white"/>
<path d="M152.498 36.2969C152.498 38.3663 151.885 40.0652 150.661 41.3938C149.378 42.7617 147.675 43.4435 145.552 43.4435C143.506 43.4435 141.877 42.7884 140.662 41.478C139.447 40.1677 138.84 38.5136 138.84 36.52C138.84 34.4338 139.465 32.7251 140.719 31.3965C141.97 30.0665 143.659 29.4015 145.782 29.4015C147.828 29.4015 149.474 30.0567 150.717 31.3684C151.905 32.6409 152.498 34.2837 152.498 36.2969ZM149.284 36.3937C149.284 35.1521 149.009 34.0873 148.453 33.1993C147.803 32.1246 146.874 31.5887 145.671 31.5887C144.426 31.5887 143.48 32.126 142.83 33.1993C142.274 34.0887 141.999 35.1704 141.999 36.4499C141.999 37.6915 142.274 38.7563 142.83 39.643C143.5 40.7176 144.436 41.2535 145.644 41.2535C146.827 41.2535 147.755 40.7064 148.425 39.6149C148.996 38.71 149.284 37.6339 149.284 36.3937Z" fill="white"/>
<path d="M162.569 32.3074C162.262 32.2527 161.935 32.2246 161.593 32.2246C160.503 32.2246 159.66 32.6217 159.067 33.4171C158.551 34.1186 158.292 35.0053 158.292 36.0757V43.1395H155.196L155.225 33.9166C155.225 32.3649 155.185 30.9522 155.108 29.6783H157.807L157.92 32.2541H158.006C158.333 31.3688 158.849 30.6561 159.555 30.1216C160.245 29.6404 160.991 29.4005 161.795 29.4005C162.081 29.4005 162.339 29.4202 162.569 29.4552V32.3074Z" fill="white"/>
<path d="M176.425 35.771C176.425 36.3069 176.389 36.7587 176.312 37.1277H167.017C167.053 38.4576 167.502 39.4748 168.366 40.1762C169.149 40.8034 170.162 41.1176 171.406 41.1176C172.782 41.1176 174.037 40.9058 175.167 40.4807L175.652 42.557C174.332 43.1126 172.775 43.389 170.977 43.389C168.815 43.389 167.117 42.7745 165.882 41.5469C164.65 40.3193 164.032 38.6709 164.032 36.603C164.032 34.5729 164.606 32.8824 165.756 31.5341C166.959 30.0947 168.585 29.375 170.631 29.375C172.641 29.375 174.162 30.0947 175.196 31.5341C176.014 32.6775 176.425 34.0917 176.425 35.771ZM173.471 34.9952C173.491 34.1085 173.289 33.3425 172.869 32.6958C172.333 31.8638 171.509 31.4485 170.4 31.4485C169.387 31.4485 168.563 31.854 167.934 32.6677C167.418 33.3145 167.112 34.0903 167.017 34.9938H173.471V34.9952Z" fill="white"/>
<path d="M70.1888 12.9825C70.1888 14.6338 69.6758 15.8768 68.6513 16.7116C67.7024 17.4818 66.3539 17.8676 64.6071 17.8676C63.741 17.8676 62.9999 17.8311 62.3794 17.7582V8.73584C63.1888 8.60958 64.0607 8.54504 65.0024 8.54504C66.6663 8.54504 67.9204 8.89438 68.7661 9.59304C69.7136 10.3829 70.1888 11.5123 70.1888 12.9825ZM68.583 13.0232C68.583 11.9528 68.2895 11.1321 67.7024 10.5597C67.1153 9.98867 66.2579 9.70247 65.1288 9.70247C64.6493 9.70247 64.2409 9.73333 63.9023 9.79787V16.6569C64.0898 16.6849 64.4327 16.6975 64.9312 16.6975C66.0966 16.6975 66.9962 16.3847 67.6298 15.759C68.2633 15.1333 68.583 14.2213 68.583 13.0232Z" fill="white"/>
<path d="M78.703 14.4245C78.703 15.4417 78.4022 16.275 77.8006 16.9288C77.1699 17.6008 76.3343 17.9361 75.2909 17.9361C74.2853 17.9361 73.4846 17.6148 72.8874 16.9695C72.2916 16.3255 71.9937 15.5132 71.9937 14.534C71.9937 13.5098 72.3003 12.6695 72.9164 12.0171C73.5326 11.3647 74.3609 11.0378 75.4043 11.0378C76.4099 11.0378 77.2178 11.3591 77.8296 12.0031C78.4109 12.6288 78.703 13.4369 78.703 14.4245ZM77.1234 14.4722C77.1234 13.862 76.9868 13.3387 76.715 12.9023C76.3953 12.3748 75.9405 12.1111 75.3491 12.1111C74.7373 12.1111 74.2722 12.3748 73.9525 12.9023C73.6793 13.3387 73.5442 13.8704 73.5442 14.4989C73.5442 15.1092 73.6808 15.6325 73.9525 16.0688C74.2824 16.5963 74.7416 16.86 75.3345 16.86C75.9158 16.86 76.3721 16.5921 76.7005 16.0548C76.9824 15.61 77.1234 15.0825 77.1234 14.4722Z" fill="white"/>
<path d="M90.1193 11.173L87.9759 17.7864H86.5808L85.6929 14.9146C85.4677 14.1977 85.2846 13.485 85.1422 12.7779H85.1146C84.9823 13.5047 84.7992 14.216 84.5638 14.9146L83.6207 17.7864H82.2097L80.1941 11.173H81.7592L82.5337 14.317C82.7212 15.0605 82.8752 15.769 82.9987 16.4396H83.0263C83.1397 15.8869 83.3272 15.1826 83.5916 14.331L84.5638 11.1744H85.8048L86.7363 14.2637C86.9616 15.017 87.1447 15.7424 87.2856 16.441H87.3278C87.4309 15.7606 87.5864 15.0353 87.7928 14.2637L88.624 11.1744H90.1193V11.173Z" fill="white"/>
<path d="M98.0143 17.7859H96.4914V13.998C96.4914 12.8307 96.0322 12.2471 95.1108 12.2471C94.6589 12.2471 94.2942 12.407 94.0108 12.7283C93.7303 13.0496 93.5879 13.4284 93.5879 13.8619V17.7845H92.065V13.0622C92.065 12.4814 92.0461 11.8515 92.0098 11.1697H93.3481L93.4194 12.2036H93.4615C93.6388 11.8823 93.9033 11.6172 94.2506 11.4053C94.6633 11.1584 95.1254 11.0336 95.6311 11.0336C96.2705 11.0336 96.8023 11.2328 97.2252 11.6326C97.7513 12.1223 98.0143 12.8532 98.0143 13.824V17.7859Z" fill="white"/>
<path d="M102.214 17.7862H100.693V8.13818H102.214V17.7862Z" fill="white"/>
<path d="M111.181 14.4245C111.181 15.4417 110.88 16.275 110.278 16.9288C109.647 17.6008 108.81 17.9361 107.768 17.9361C106.761 17.9361 105.961 17.6148 105.365 16.9695C104.769 16.3255 104.471 15.5132 104.471 14.534C104.471 13.5098 104.778 12.6695 105.394 12.0171C106.01 11.3647 106.838 11.0378 107.88 11.0378C108.887 11.0378 109.694 11.3591 110.307 12.0031C110.888 12.6288 111.181 13.4369 111.181 14.4245ZM109.599 14.4722C109.599 13.862 109.463 13.3387 109.191 12.9023C108.873 12.3748 108.417 12.1111 107.827 12.1111C107.213 12.1111 106.748 12.3748 106.43 12.9023C106.157 13.3387 106.022 13.8704 106.022 14.4989C106.022 15.1092 106.158 15.6325 106.43 16.0688C106.76 16.5963 107.219 16.86 107.812 16.86C108.393 16.86 108.848 16.5921 109.177 16.0548C109.46 15.61 109.599 15.0825 109.599 14.4722Z" fill="white"/>
<path d="M118.551 17.786H117.183L117.07 17.0242H117.028C116.56 17.6317 115.893 17.9361 115.027 17.9361C114.38 17.9361 113.857 17.7355 113.463 17.337C113.106 16.9751 112.927 16.5247 112.927 15.9902C112.927 15.1821 113.276 14.5662 113.978 14.1397C114.678 13.7132 115.663 13.5042 116.932 13.514V13.3906C116.932 12.5193 116.458 12.0844 115.509 12.0844C114.834 12.0844 114.238 12.2486 113.723 12.5741L113.414 11.6088C114.05 11.2286 114.836 11.0378 115.764 11.0378C117.554 11.0378 118.452 11.9498 118.452 13.7736V16.2091C118.452 16.8699 118.485 17.396 118.551 17.786ZM116.97 15.5132V14.4933C115.29 14.4652 114.45 14.91 114.45 15.8261C114.45 16.1712 114.546 16.4293 114.742 16.6019C114.938 16.7745 115.188 16.86 115.486 16.86C115.82 16.86 116.133 16.7576 116.418 16.5542C116.704 16.3494 116.88 16.0898 116.945 15.7714C116.961 15.6998 116.97 15.6128 116.97 15.5132Z" fill="white"/>
<path d="M127.205 17.7862H125.853L125.782 16.7242H125.74C125.308 17.5323 124.573 17.9363 123.54 17.9363C122.714 17.9363 122.027 17.6235 121.482 16.9978C120.937 16.372 120.665 15.5597 120.665 14.5623C120.665 13.4918 120.96 12.6248 121.553 11.9626C122.127 11.3453 122.831 11.0367 123.668 11.0367C124.587 11.0367 125.231 11.3355 125.597 11.9345H125.626V8.13818H127.151V16.0045C127.151 16.6484 127.168 17.2419 127.205 17.7862ZM125.626 14.9972V13.8945C125.626 13.7037 125.612 13.5493 125.584 13.4315C125.499 13.0779 125.314 12.7805 125.034 12.5406C124.75 12.3007 124.409 12.1801 124.015 12.1801C123.447 12.1801 123.002 12.3975 122.675 12.8338C122.351 13.2701 122.187 13.8271 122.187 14.5075C122.187 15.1613 122.342 15.6916 122.655 16.0999C122.985 16.5348 123.429 16.7522 123.986 16.7522C124.486 16.7522 124.885 16.5713 125.189 16.2079C125.483 15.8726 125.626 15.4686 125.626 14.9972Z" fill="white"/>
<path d="M140.229 14.4245C140.229 15.4417 139.929 16.275 139.327 16.9288C138.696 17.6008 137.862 17.9361 136.817 17.9361C135.813 17.9361 135.012 17.6148 134.414 16.9695C133.818 16.3255 133.52 15.5132 133.52 14.534C133.52 13.5098 133.827 12.6695 134.443 12.0171C135.059 11.3647 135.887 11.0378 136.932 11.0378C137.936 11.0378 138.746 11.3591 139.356 12.0031C139.937 12.6288 140.229 13.4369 140.229 14.4245ZM138.651 14.4722C138.651 13.862 138.515 13.3387 138.243 12.9023C137.922 12.3748 137.468 12.1111 136.875 12.1111C136.265 12.1111 135.8 12.3748 135.479 12.9023C135.206 13.3387 135.071 13.8704 135.071 14.4989C135.071 15.1092 135.207 15.6325 135.479 16.0688C135.809 16.5963 136.268 16.86 136.861 16.86C137.442 16.86 137.9 16.5921 138.228 16.0548C138.509 15.61 138.651 15.0825 138.651 14.4722Z" fill="white"/>
<path d="M148.418 17.7859H146.897V13.998C146.897 12.8307 146.437 12.2471 145.515 12.2471C145.063 12.2471 144.698 12.407 144.416 12.7283C144.134 13.0496 143.993 13.4284 143.993 13.8619V17.7845H142.469V13.0622C142.469 12.4814 142.451 11.8515 142.415 11.1697H143.752L143.823 12.2036H143.865C144.044 11.8823 144.309 11.6172 144.654 11.4053C145.069 11.1584 145.529 11.0336 146.036 11.0336C146.674 11.0336 147.206 11.2328 147.629 11.6326C148.157 12.1223 148.418 12.8532 148.418 13.824V17.7859Z" fill="white"/>
<path d="M158.667 12.2741H156.99V15.4869C156.99 16.3034 157.288 16.7116 157.878 16.7116C158.152 16.7116 158.378 16.6892 158.557 16.6429L158.596 17.7582C158.295 17.8676 157.9 17.9224 157.413 17.9224C156.812 17.9224 156.344 17.7456 156.005 17.392C155.665 17.0385 155.497 16.4437 155.497 15.6089V12.2741H154.495V11.1728H155.497V9.96067L156.989 9.52576V11.1714H158.666V12.2741H158.667Z" fill="white"/>
<path d="M166.73 17.7862H165.205V14.0263C165.205 12.8408 164.746 12.2474 163.826 12.2474C163.12 12.2474 162.637 12.5911 162.373 13.2786C162.328 13.4231 162.302 13.5998 162.302 13.8075V17.7848H160.78V8.13818H162.302V12.1239H162.331C162.81 11.3986 163.498 11.0367 164.389 11.0367C165.019 11.0367 165.541 11.2359 165.955 11.6357C166.471 12.1338 166.73 12.8745 166.73 13.8538V17.7862Z" fill="white"/>
<path d="M175.046 14.1663C175.046 14.4301 175.026 14.6517 174.99 14.8327H170.422C170.443 15.4865 170.661 15.9845 171.084 16.3297C171.47 16.6383 171.969 16.7926 172.579 16.7926C173.255 16.7926 173.871 16.6888 174.426 16.4798L174.664 17.5011C174.015 17.7733 173.25 17.9094 172.365 17.9094C171.304 17.9094 170.469 17.6077 169.864 17.0045C169.257 16.4012 168.956 15.5917 168.956 14.576C168.956 13.5785 169.237 12.748 169.802 12.0858C170.392 11.3787 171.19 11.0251 172.197 11.0251C173.182 11.0251 173.93 11.3787 174.436 12.0858C174.844 12.6469 175.046 13.3414 175.046 14.1663ZM173.593 13.7861C173.605 13.3498 173.505 12.9738 173.298 12.6568C173.034 12.2485 172.631 12.0437 172.086 12.0437C171.589 12.0437 171.184 12.2429 170.874 12.6427C170.621 12.9612 170.472 13.3414 170.422 13.7861H173.593Z" fill="white"/>
</svg>
