<svg width="196" height="57" viewBox="0 0 196 57" fill="none" xmlns="http://www.w3.org/2000/svg">
<path d="M188.741 57H7.25926C3.26848 57 0 53.792 0 49.875V7.125C0 3.20804 3.26848 5.3745e-06 7.25926 5.3745e-06H188.741C192.732 5.3745e-06 196 3.20804 196 7.125V49.875C196 53.792 192.732 57 188.741 57Z" fill="#242424"/>
<path d="M68.8433 14.5977C68.8433 15.7876 68.4804 16.7405 67.7653 17.4512C66.9432 18.2938 65.8725 18.7177 64.5604 18.7177C63.3063 18.7177 62.2356 18.2866 61.3572 17.437C60.477 16.5749 60.0378 15.5168 60.0378 14.2503C60.0378 12.9839 60.477 11.9258 61.3572 11.0708C62.2356 10.214 63.3063 9.78296 64.5604 9.78296C65.1847 9.78296 65.7799 9.90943 66.3479 10.1446C66.9142 10.3815 67.3751 10.7021 67.7091 11.0975L66.9505 11.8492C66.3679 11.1741 65.5748 10.841 64.5604 10.841C63.6457 10.841 62.8526 11.1545 62.1793 11.7869C61.5133 12.421 61.1794 13.2421 61.1794 14.2503C61.1794 15.2585 61.5133 16.0868 62.1793 16.7209C62.8526 17.3461 63.6457 17.6668 64.5604 17.6668C65.5313 17.6668 66.348 17.3461 66.9922 16.7138C67.4169 16.2952 67.6583 15.7181 67.7218 14.9806H64.5604V13.9511H68.778C68.8288 14.1737 68.8433 14.3893 68.8433 14.5977Z" fill="white"/>
<path d="M75.5345 11.0279H71.5727V13.7354H75.1443V14.765H71.5727V17.4725H75.5345V18.5216H70.4512V9.97876H75.5345V11.0279Z" fill="white"/>
<path d="M80.2567 18.5216H79.1351V11.0279H76.7051V9.97876H82.6885V11.0279H80.2567V18.5216Z" fill="white"/>
<path d="M87.0186 18.5216V9.97876H88.1383V18.5216H87.0186Z" fill="white"/>
<path d="M93.1019 18.5216H91.9894V11.0279H89.5503V9.97876H95.541V11.0279H93.1019V18.5216Z" fill="white"/>
<path d="M106.869 17.4227C106.011 18.2866 104.947 18.7177 103.679 18.7177C102.403 18.7177 101.339 18.2866 100.481 17.4227C99.6245 16.5606 99.198 15.5026 99.198 14.2503C99.198 12.9981 99.6245 11.9401 100.481 11.0779C101.339 10.214 102.403 9.78296 103.679 9.78296C104.94 9.78296 106.004 10.214 106.862 11.0851C107.726 11.9543 108.152 13.0052 108.152 14.2503C108.152 15.5026 107.726 16.5606 106.869 17.4227ZM101.31 16.7067C101.957 17.3461 102.742 17.6668 103.679 17.6668C104.608 17.6668 105.401 17.3461 106.04 16.7067C106.684 16.0672 107.011 15.2461 107.011 14.2503C107.011 13.2546 106.684 12.4335 106.04 11.794C105.401 11.1545 104.608 10.8339 103.679 10.8339C102.742 10.8339 101.957 11.1545 101.31 11.794C100.666 12.4335 100.34 13.2546 100.34 14.2503C100.34 15.2461 100.666 16.0672 101.31 16.7067Z" fill="white"/>
<path d="M109.726 18.5216V9.97876H111.087L115.319 16.6228H115.368L115.319 14.9805V9.97876H116.439V18.5216H115.27L110.838 11.5498H110.789L110.838 13.1993V18.5216H109.726Z" fill="white"/>
<path d="M98.9219 30.9972C95.5119 30.9972 92.7261 33.5444 92.7261 37.0588C92.7261 40.5447 95.5119 43.1186 98.9219 43.1186C102.339 43.1186 105.125 40.5447 105.125 37.0588C105.125 33.5444 102.339 30.9972 98.9219 30.9972ZM98.9219 40.7317C97.0508 40.7317 95.4411 39.2159 95.4411 37.0588C95.4411 34.8732 97.0508 33.3841 98.9219 33.3841C100.793 33.3841 102.41 34.8732 102.41 37.0588C102.41 39.2159 100.793 40.7317 98.9219 40.7317ZM85.4033 30.9972C81.986 30.9972 79.2076 33.5444 79.2076 37.0588C79.2076 40.5447 81.986 43.1186 85.4033 43.1186C88.8188 43.1186 91.5991 40.5447 91.5991 37.0588C91.5991 33.5444 88.8188 30.9972 85.4033 30.9972ZM85.4033 40.7317C83.5305 40.7317 81.9153 39.2159 81.9153 37.0588C81.9153 34.8732 83.5305 33.3841 85.4033 33.3841C87.2744 33.3841 88.8842 34.8732 88.8842 37.0588C88.8842 39.2159 87.2744 40.7317 85.4033 40.7317ZM69.3168 32.855V35.4307H75.5834C75.4001 36.87 74.9101 37.928 74.1588 38.6655C73.2441 39.5561 71.8195 40.5447 69.3168 40.5447C65.4604 40.5447 62.4405 37.4898 62.4405 33.7047C62.4405 29.9195 65.4604 26.8647 69.3168 26.8647C71.4021 26.8647 72.9192 27.6645 74.039 28.7012L75.8883 26.8861C74.3221 25.4183 72.2387 24.2908 69.3168 24.2908C64.0285 24.2908 59.584 28.5141 59.584 33.7047C59.584 38.8952 64.0285 43.1186 69.3168 43.1186C72.1752 43.1186 74.3221 42.1995 76.0099 40.4752C77.7394 38.7777 78.2784 36.3908 78.2784 34.4635C78.2784 33.865 78.2276 33.3146 78.1368 32.855H69.3168ZM135.097 34.8518C134.587 33.4963 133.013 30.9972 129.808 30.9972C126.632 30.9972 123.988 33.4535 123.988 37.0588C123.988 40.4538 126.605 43.1186 130.113 43.1186C132.95 43.1186 134.587 41.4211 135.26 40.4325L133.155 39.0556C132.452 40.0637 131.496 40.7317 130.113 40.7317C128.739 40.7317 127.754 40.1136 127.122 38.8952L135.382 35.5411L135.097 34.8518ZM126.676 36.87C126.605 34.533 128.525 33.336 129.901 33.336C130.979 33.336 131.893 33.865 132.198 34.622L126.676 36.87ZM119.963 42.7499H122.678V24.9374H119.963V42.7499ZM115.517 32.3474H115.426C114.816 31.6384 113.653 30.9972 112.179 30.9972C109.087 30.9972 106.259 33.6619 106.259 37.0784C106.259 40.4752 109.087 43.1186 112.179 43.1186C113.653 43.1186 114.816 42.472 115.426 41.7417H115.517V42.6109C115.517 44.9283 114.255 46.1734 112.221 46.1734C110.562 46.1734 109.533 44.9978 109.108 44.0092L106.747 44.9764C107.428 46.5831 109.23 48.5603 112.221 48.5603C115.404 48.5603 118.09 46.7221 118.09 42.2493V31.3659H115.517V32.3474ZM112.411 40.7317C110.54 40.7317 108.974 39.1945 108.974 37.0784C108.974 34.9427 110.54 33.3841 112.411 33.3841C114.255 33.3841 115.709 34.9427 115.709 37.0784C115.709 39.1945 114.255 40.7317 112.411 40.7317ZM147.808 24.9374H141.314V42.7499H144.022V36.0007H147.808C150.815 36.0007 153.764 33.865 153.764 30.4682C153.764 27.0731 150.807 24.9374 147.808 24.9374ZM147.878 33.523H144.022V27.4151H147.878C149.9 27.4151 151.054 29.0627 151.054 30.4682C151.054 31.8468 149.9 33.523 147.878 33.523ZM164.616 30.9633C162.66 30.9633 160.626 31.8112 159.789 33.6904L162.192 34.679C162.709 33.6904 163.66 33.3698 164.665 33.3698C166.07 33.3698 167.495 34.1981 167.516 35.6605V35.8475C167.026 35.5697 165.977 35.1582 164.687 35.1582C162.099 35.1582 159.462 36.5565 159.462 39.166C159.462 41.5529 161.582 43.0901 163.965 43.0901C165.787 43.0901 166.792 42.2832 167.424 41.3445H167.516V42.7214H170.132V35.8885C170.132 32.7303 167.729 30.9633 164.616 30.9633ZM164.29 40.7246C163.404 40.7246 162.17 40.2935 162.17 39.2159C162.17 37.8372 163.709 37.3081 165.041 37.3081C166.233 37.3081 166.792 37.5664 167.516 37.9066C167.304 39.5561 165.858 40.7246 164.29 40.7246ZM179.659 31.3534L176.547 39.0752H176.454L173.237 31.3534H170.317L175.151 42.1442L172.393 48.1488H175.222L182.672 31.3534H179.659ZM155.252 42.7499H157.967V24.9374H155.252V42.7499Z" fill="white"/>
<path d="M15.1499 10.743C14.7234 11.1811 14.4766 11.8634 14.4766 12.7469V44.2607C14.4766 45.1442 14.7234 45.8265 15.1499 46.2647L15.2551 46.3608L33.2472 28.7087V28.2918L15.2551 10.6397L15.1499 10.743Z" fill="url(#paint0_linear_10126_113)"/>
<path d="M39.238 34.5952L33.2473 28.7082V28.2914L39.2453 22.4043L39.3796 22.4809L46.4828 26.4478C48.5099 27.5735 48.5099 29.426 46.4828 30.5589L39.3796 34.5186L39.238 34.5952Z" fill="url(#paint1_linear_10126_113)"/>
<path d="M39.3797 34.5193L33.2475 28.5004L15.1501 46.2648C15.8234 46.9595 16.9214 47.0432 18.17 46.3485L39.3797 34.5193Z" fill="url(#paint2_linear_10126_113)"/>
<path d="M39.3797 22.4812L18.17 10.6519C16.9214 9.96432 15.8234 10.048 15.1501 10.7427L33.2475 28.5L39.3797 22.4812Z" fill="url(#paint3_linear_10126_113)"/>
<defs>
<linearGradient id="paint0_linear_10126_113" x1="31.6497" y1="44.5889" x2="7.73896" y2="20.2276" gradientUnits="userSpaceOnUse">
<stop stop-color="#00A0FF"/>
<stop offset="0.0066" stop-color="#00A1FF"/>
<stop offset="0.2601" stop-color="#00BEFF"/>
<stop offset="0.5122" stop-color="#00D2FF"/>
<stop offset="0.7604" stop-color="#00DFFF"/>
<stop offset="1" stop-color="#00E3FF"/>
</linearGradient>
<linearGradient id="paint1_linear_10126_113" x1="49.1224" y1="28.4978" x2="13.9921" y2="28.4978" gradientUnits="userSpaceOnUse">
<stop stop-color="#FFE000"/>
<stop offset="0.4087" stop-color="#FFBD00"/>
<stop offset="0.7754" stop-color="#FFA500"/>
<stop offset="1" stop-color="#FF9C00"/>
</linearGradient>
<linearGradient id="paint2_linear_10126_113" x1="36.0452" y1="25.2285" x2="3.62027" y2="-7.80744" gradientUnits="userSpaceOnUse">
<stop stop-color="#FF3A44"/>
<stop offset="1" stop-color="#C31162"/>
</linearGradient>
<linearGradient id="paint3_linear_10126_113" x1="10.5947" y1="56.7489" x2="25.0739" y2="41.997" gradientUnits="userSpaceOnUse">
<stop stop-color="#32A071"/>
<stop offset="0.0685" stop-color="#2DA771"/>
<stop offset="0.4762" stop-color="#15CF74"/>
<stop offset="0.8009" stop-color="#06E775"/>
<stop offset="1" stop-color="#00F076"/>
</linearGradient>
</defs>
</svg>
