<svg width="25" height="23" viewBox="0 0 25 23" fill="none" xmlns="http://www.w3.org/2000/svg">
<path d="M18.3694 12.2314C18.3428 9.32565 20.7851 7.91202 20.8968 7.84621C19.5136 5.86009 17.3697 5.58872 16.6164 5.56708C14.8158 5.38046 13.0692 6.62821 12.152 6.62821C11.2165 6.62821 9.80401 5.58511 8.28171 5.61577C6.32277 5.64552 4.49015 6.76254 3.48505 8.49713C1.41077 12.0339 2.95778 17.2314 4.9451 20.0902C5.93922 21.4903 7.10086 23.0536 8.62133 22.9986C10.1088 22.9382 10.6645 22.0646 12.4596 22.0646C14.2382 22.0646 14.76 22.9986 16.3106 22.9634C17.9071 22.9382 18.9122 21.557 19.8715 20.1443C21.0203 18.5395 21.4817 16.9591 21.5 16.878C21.4625 16.8653 18.3996 15.7141 18.3694 12.2314Z" fill="white"/>
<path d="M15.4401 3.68645C16.2401 2.70105 16.7876 1.36044 16.6356 0C15.4776 0.0504869 14.0295 0.788858 13.1955 1.75262C12.4577 2.60188 11.7987 3.99388 11.9689 5.30293C13.2697 5.39849 14.6053 4.65652 15.4401 3.68645Z" fill="white"/>
</svg>
