<svg width="24" height="23" viewBox="0 0 24 23" fill="none" xmlns="http://www.w3.org/2000/svg">
<path d="M1.89883 1.12087C1.6462 1.37871 1.5 1.78015 1.5 2.30002V20.8436C1.5 21.3635 1.6462 21.7649 1.89883 22.0227L1.96118 22.0793L12.6188 11.6923V11.4471L1.96118 1.06008L1.89883 1.12087Z" fill="white"/>
<path d="M17.4573 15.1562L13.9087 11.6922V11.4469L17.4616 7.98283L17.5411 8.0279L21.7487 10.3621C22.9495 11.0245 22.9495 12.1146 21.7487 12.7812L17.5411 15.1112L17.4573 15.1562Z" fill="white"/>
<path d="M16.8964 15.7563L13.2639 12.2147L2.54395 22.6677C2.94277 23.0765 3.59315 23.1257 4.33276 22.7169L16.8964 15.7563Z" fill="white"/>
<path d="M16.8964 7.38292L4.33276 0.422272C3.59315 0.0176926 2.94277 0.0669534 2.54395 0.475726L13.2639 10.9246L16.8964 7.38292Z" fill="white"/>
</svg>
