<svg width="157" height="53" viewBox="0 0 157 53" fill="none" xmlns="http://www.w3.org/2000/svg">
<path d="M60.2756 40.2208C58.9929 40.2208 57.8336 39.9495 56.7976 39.4068C55.7616 38.8642 54.9352 38.1242 54.3186 37.1868C53.7019 36.2495 53.3689 35.2012 53.3196 34.0418V27.6778C53.3689 26.5185 53.7019 25.4825 54.3186 24.5698C54.9599 23.6325 55.7986 22.9048 56.8346 22.3868C57.8706 21.8688 59.0176 21.6098 60.2756 21.6098C61.9282 21.6098 63.4082 22.0168 64.7156 22.8308C66.0229 23.6448 67.0466 24.7548 67.7866 26.1608C68.5512 27.5668 68.9336 29.1578 68.9336 30.9338C68.9336 32.6852 68.5512 34.2638 67.7866 35.6698C67.0466 37.0758 66.0229 38.1858 64.7156 38.9998C63.4082 39.8138 61.9282 40.2208 60.2756 40.2208ZM59.4616 35.7438C60.3496 35.7438 61.1266 35.5465 61.7926 35.1518C62.4832 34.7325 63.0136 34.1652 63.3836 33.4498C63.7782 32.7098 63.9756 31.8588 63.9756 30.8968C63.9756 29.9595 63.7782 29.1332 63.3836 28.4178C63.0136 27.6778 62.4832 27.1105 61.7926 26.7158C61.1019 26.2965 60.3126 26.0868 59.4246 26.0868C58.5366 26.0868 57.7472 26.2965 57.0566 26.7158C56.3906 27.1105 55.8602 27.6778 55.4656 28.4178C55.0956 29.1332 54.9106 29.9595 54.9106 30.8968C54.9106 31.8588 55.0956 32.7098 55.4656 33.4498C55.8602 34.1652 56.4029 34.7325 57.0936 35.1518C57.7842 35.5465 58.5736 35.7438 59.4616 35.7438ZM50.3596 39.8508V13.0998H55.2066V26.3828L54.3926 30.6748L55.1696 35.0408V39.8508H50.3596ZM79.7335 40.2208C78.1549 40.2208 76.7489 39.8878 75.5155 39.2218C74.3069 38.5558 73.3572 37.6308 72.6665 36.4468C71.9759 35.2628 71.6305 33.8938 71.6305 32.3398V21.9798H76.5145V32.2288C76.5145 32.9688 76.6379 33.6102 76.8845 34.1528C77.1312 34.6708 77.5012 35.0655 77.9945 35.3368C78.4879 35.6082 79.0675 35.7438 79.7335 35.7438C80.7449 35.7438 81.5342 35.4355 82.1015 34.8188C82.6689 34.2022 82.9525 33.3388 82.9525 32.2288V21.9798H87.7995V32.3398C87.7995 33.9185 87.4542 35.2998 86.7635 36.4838C86.0975 37.6678 85.1479 38.5928 83.9145 39.2588C82.7059 39.9002 81.3122 40.2208 79.7335 40.2208ZM99.2074 40.2208C97.5547 40.2208 96.0747 39.8138 94.7674 38.9998C93.46 38.1858 92.424 37.0758 91.6594 35.6698C90.9194 34.2638 90.5494 32.6852 90.5494 30.9338C90.5494 29.1578 90.9194 27.5668 91.6594 26.1608C92.424 24.7548 93.4477 23.6448 94.7304 22.8308C96.0377 22.0168 97.53 21.6098 99.2074 21.6098C100.49 21.6098 101.637 21.8688 102.648 22.3868C103.684 22.9048 104.511 23.6325 105.127 24.5698C105.769 25.4825 106.114 26.5185 106.163 27.6778V34.0418C106.114 35.2012 105.781 36.2495 105.164 37.1868C104.548 38.1242 103.721 38.8642 102.685 39.4068C101.649 39.9495 100.49 40.2208 99.2074 40.2208ZM100.021 35.7438C100.934 35.7438 101.723 35.5465 102.389 35.1518C103.08 34.7325 103.61 34.1652 103.98 33.4498C104.375 32.7098 104.572 31.8588 104.572 30.8968C104.572 29.9595 104.375 29.1332 103.98 28.4178C103.61 27.6778 103.08 27.1105 102.389 26.7158C101.723 26.2965 100.946 26.0868 100.058 26.0868C99.1457 26.0868 98.344 26.2965 97.6534 26.7158C96.9874 27.1352 96.457 27.7025 96.0624 28.4178C95.6924 29.1332 95.5074 29.9595 95.5074 30.8968C95.5074 31.8588 95.6924 32.7098 96.0624 33.4498C96.457 34.1652 96.9997 34.7325 97.6904 35.1518C98.381 35.5465 99.158 35.7438 100.021 35.7438ZM109.123 39.8508H104.313V35.0408L105.09 30.6748L104.276 26.3828V13.0998H109.123V39.8508ZM119.553 40.2578C118.542 40.2578 117.543 40.1222 116.556 39.8508C115.594 39.5795 114.706 39.2095 113.892 38.7408C113.078 38.2475 112.375 37.6555 111.783 36.9648L114.669 34.0418C115.286 34.7325 116.001 35.2505 116.815 35.5958C117.629 35.9412 118.53 36.1138 119.516 36.1138C120.306 36.1138 120.898 36.0028 121.292 35.7808C121.712 35.5588 121.921 35.2258 121.921 34.7818C121.921 34.2885 121.699 33.9062 121.255 33.6348C120.836 33.3635 120.281 33.1415 119.59 32.9688C118.9 32.7715 118.172 32.5618 117.407 32.3398C116.667 32.0932 115.952 31.7848 115.261 31.4148C114.571 31.0202 114.003 30.4898 113.559 29.8238C113.14 29.1332 112.93 28.2452 112.93 27.1598C112.93 26.0252 113.202 25.0385 113.744 24.1998C114.312 23.3612 115.113 22.7075 116.149 22.2388C117.185 21.7702 118.406 21.5358 119.812 21.5358C121.292 21.5358 122.624 21.7948 123.808 22.3128C125.017 22.8308 126.016 23.6078 126.805 24.6438L123.882 27.5668C123.34 26.9008 122.723 26.4198 122.032 26.1238C121.366 25.8278 120.639 25.6798 119.849 25.6798C119.134 25.6798 118.579 25.7908 118.184 26.0128C117.814 26.2348 117.629 26.5432 117.629 26.9378C117.629 27.3818 117.839 27.7272 118.258 27.9738C118.702 28.2205 119.27 28.4425 119.96 28.6398C120.651 28.8125 121.366 29.0222 122.106 29.2688C122.871 29.4908 123.586 29.8115 124.252 30.2308C124.943 30.6502 125.498 31.2052 125.917 31.8958C126.361 32.5865 126.583 33.4745 126.583 34.5598C126.583 36.3112 125.954 37.7048 124.696 38.7408C123.438 39.7522 121.724 40.2578 119.553 40.2578ZM135.994 40.2578C134.982 40.2578 133.983 40.1222 132.997 39.8508C132.035 39.5795 131.147 39.2095 130.333 38.7408C129.519 38.2475 128.816 37.6555 128.224 36.9648L131.11 34.0418C131.726 34.7325 132.442 35.2505 133.256 35.5958C134.07 35.9412 134.97 36.1138 135.957 36.1138C136.746 36.1138 137.338 36.0028 137.733 35.7808C138.152 35.5588 138.362 35.2258 138.362 34.7818C138.362 34.2885 138.14 33.9062 137.696 33.6348C137.276 33.3635 136.721 33.1415 136.031 32.9688C135.34 32.7715 134.612 32.5618 133.848 32.3398C133.108 32.0932 132.392 31.7848 131.702 31.4148C131.011 31.0202 130.444 30.4898 130 29.8238C129.58 29.1332 129.371 28.2452 129.371 27.1598C129.371 26.0252 129.642 25.0385 130.185 24.1998C130.752 23.3612 131.554 22.7075 132.59 22.2388C133.626 21.7702 134.847 21.5358 136.253 21.5358C137.733 21.5358 139.065 21.7948 140.249 22.3128C141.457 22.8308 142.456 23.6078 143.246 24.6438L140.323 27.5668C139.78 26.9008 139.163 26.4198 138.473 26.1238C137.807 25.8278 137.079 25.6798 136.29 25.6798C135.574 25.6798 135.019 25.7908 134.625 26.0128C134.255 26.2348 134.07 26.5432 134.07 26.9378C134.07 27.3818 134.279 27.7272 134.699 27.9738C135.143 28.2205 135.71 28.4425 136.401 28.6398C137.091 28.8125 137.807 29.0222 138.547 29.2688C139.311 29.4908 140.027 29.8115 140.693 30.2308C141.383 30.6502 141.938 31.2052 142.358 31.8958C142.802 32.5865 143.024 33.4745 143.024 34.5598C143.024 36.3112 142.395 37.7048 141.137 38.7408C139.879 39.7522 138.164 40.2578 135.994 40.2578Z" fill="white"/>
<path opacity="0.7" d="M25.3803 26.7532L22.1351 26.797C18.2732 26.8492 15.1003 23.7608 15.0481 19.8989V19.8989C14.9959 16.0371 18.0843 12.8641 21.9462 12.8119L37.9886 12.5952" stroke="#FFAA4C" stroke-width="8.44412" stroke-linecap="round"/>
<path opacity="0.7" d="M36.5708 40.9026L20.5198 40.8594C16.6616 40.849 13.5423 37.7128 13.5527 33.8546V33.8546C13.563 30.0039 16.6873 26.8877 20.538 26.8874L25.5062 26.8869" stroke="#2FDBBC" stroke-width="8.44412" stroke-linecap="round"/>
<path opacity="0.7" d="M36.6737 40.7686L26.4257 28.3075C25.5015 27.1837 25.5608 25.547 26.5641 24.493L37.9155 12.5679" stroke="#A64CED" stroke-width="8.44412" stroke-linecap="round"/>
</svg>
