<svg width="297" height="232" viewBox="0 0 297 232" fill="none" xmlns="http://www.w3.org/2000/svg">
<path opacity="0.7" d="M141.606 95.7891H166.162" stroke="#A64CED" stroke-width="147.601" stroke-linecap="round"/>
<path d="M171.268 63.7514C170.008 67.913 160.805 72.8418 155.147 70.0661" stroke="black" stroke-width="2" stroke-linecap="round" stroke-linejoin="round"/>
<ellipse cx="138.537" cy="59.504" rx="3.06946" ry="3.07502" fill="black"/>
<ellipse cx="164.32" cy="54.5838" rx="3.06946" ry="3.07502" fill="black"/>
<path d="M154 167.374L141.062 229H98L104.268 223.71C106.571 221.766 108.08 219.045 108.509 216.063L115.86 165" stroke="black" stroke-width="2" stroke-linecap="round" stroke-linejoin="round"/>
<path d="M154 167.374V229H197L192.045 224.811C188.989 222.229 187.381 218.322 187.732 214.336L192.086 165" stroke="black" stroke-width="2" stroke-linecap="round" stroke-linejoin="round"/>
<path d="M41.518 57.0536C60.3183 57.0867 59.7839 69.8145 39.2611 64.9184C45.2683 66.5981 54.4061 68.5217 51.6058 73.2381C48.8055 77.9544 38.0151 72.928 38.0151 72.928C45.6336 77.0904 47.6231 80.2414 44.9944 82.5259C43.8453 83.5246 41.8843 83.9159 39.6068 83.7346M93.7001 81.6145C69.1275 93.4459 63.1146 74.9796 61.1888 66.1059C59.2629 57.2323 65.9537 31.733 57.417 30.4551C50.5516 29.4274 48.4159 38.1422 48.9525 51.7732C45.1639 50.002 28.1468 50.0197 24.3641 65.0352C21.4718 76.516 32.2092 83.1458 39.6068 83.7346M89.3513 112.219C67.7508 116.902 47.5841 109.713 39.6068 83.7346" stroke="black" stroke-width="2" stroke-linecap="round" stroke-linejoin="round"/>
<path d="M206.682 113.677C212.498 117.11 216.091 117.943 223.213 117.08C217.001 120.877 214.211 123.181 210.955 127.716M218.47 75.2729C231.422 79.0077 257.202 91.1172 256.703 109.677C256.356 122.569 246.989 131.519 238.106 136.745M214.169 151.335C219.635 155.621 232.023 162.389 237.847 155.178C240.066 152.431 239.943 150.018 238.617 147.997M238.106 136.745C234.202 139.043 230.391 140.621 227.48 141.498C231.122 142.461 236.46 144.712 238.617 147.997M238.106 136.745C244.646 139.155 243.271 146.418 238.617 147.997" stroke="black" stroke-width="2" stroke-linecap="round" stroke-linejoin="round"/>
</svg>
