<svg width="184" height="46" viewBox="0 0 184 46" fill="none" xmlns="http://www.w3.org/2000/svg">
<g clip-path="url(#clip0_1_8527)">
<path d="M75.8999 30.5272C72.9727 34.0818 68.7908 36.3818 64.1908 36.3818C56.2454 36.3818 49.9727 30.7363 49.9727 23.4181C49.9727 19.8636 51.4363 16.5181 54.1545 14.009C56.6636 11.4999 60.2181 10.2454 63.7727 10.4545C68.3727 10.4545 72.7636 12.5454 75.4817 16.309L70.2545 20.0727C68.7908 17.7727 66.4908 16.309 63.7727 16.309C59.7999 16.309 56.4545 19.6545 56.4545 23.6272C56.6636 27.809 60.009 30.9454 63.9817 30.9454C66.6999 30.9454 69.209 29.6908 70.6727 27.3909L75.8999 30.5272Z" fill="#181818"/>
<path d="M85.3092 0H78.8274V35.7545H85.3092V0Z" fill="#181818"/>
<path d="M102.664 30.7364C106.846 30.7364 110.4 27.391 110.609 23.2091C110.4 19.0273 106.846 15.6819 102.664 15.6819C98.4819 15.6819 94.9274 19.0273 94.7183 23.2091C94.9274 27.391 98.2728 30.7364 102.664 30.7364ZM102.664 10.2455C106.218 10.0364 109.773 11.291 112.491 13.8C115.209 16.3091 116.673 19.6546 116.882 23.2091C116.673 26.7637 115.209 30.3182 112.491 32.6182C109.773 35.1273 106.218 36.3819 102.664 36.1728C94.7183 36.1728 88.4456 30.5273 88.4456 23.2091C88.4456 15.891 94.7183 10.2455 102.664 10.2455Z" fill="#181818"/>
<path d="M115.627 10.6637H123.364L129.636 24.0455L136.327 10.6637H143.436L129.636 37.2182L115.627 10.6637Z" fill="#181818"/>
<path d="M162.045 19.6546C161 17.1455 158.7 15.6819 155.982 15.6819C153.264 15.6819 150.755 17.1455 149.5 19.6546H162.045ZM166.227 32.8273C163.509 35.1273 160.164 36.1728 156.609 36.1728C148.664 36.1728 142.391 30.5273 142.391 23.2091C142.391 19.6546 143.855 16.3091 146.364 13.8C148.873 11.291 152.427 10.0364 155.982 10.2455C159.536 10.0364 162.882 11.5 165.391 14.0091C167.9 16.5182 169.155 19.8637 168.945 23.4182V25.091H148.873C149.918 28.4364 153.055 30.7364 156.609 30.7364C158.7 30.7364 160.791 29.9 162.464 28.2273L166.227 32.8273ZM172.082 21.7455C172.082 15.6819 176.682 10.8728 184 10.8728V16.7273C182.536 16.7273 180.864 17.3546 179.818 18.4C178.773 19.4455 178.355 21.1182 178.564 22.5819V35.7546H172.082V21.7455Z" fill="#181818"/>
<path d="M20.2819 11.7091C20.2819 7.52732 17.7728 3.97277 14.0091 2.30005C10.2455 0.627318 5.85459 1.46368 2.92731 4.39095C4.18574e-05 7.31823 -0.836322 11.7091 0.627315 15.4728C2.09095 19.2364 5.85459 21.7455 10.0364 21.7455H20.2819V11.7091ZM23.2091 11.7091C23.2091 7.52732 25.7182 3.97277 29.4819 2.30005C33.2455 0.627318 37.6364 1.46368 40.5637 4.39095C43.4909 7.31823 44.3273 11.7091 42.8637 15.4728C41.4 19.2364 37.6364 21.7455 33.4546 21.7455H23.2091V11.7091ZM23.2091 34.7091C23.2091 38.891 25.7182 42.4455 29.4819 44.1182C33.2455 45.791 37.6364 44.9546 40.5637 42.0273C43.4909 39.1 44.3273 34.7091 42.8637 30.9455C41.4 27.1819 37.6364 24.6728 33.4546 24.6728H23.2091V34.7091ZM10.0364 42.0273C14.0091 42.0273 17.3546 38.891 17.3546 34.7091V27.391H10.0364C6.06368 27.391 2.71822 30.5273 2.71822 34.7091C2.71822 38.891 6.06368 42.0273 10.0364 42.0273ZM20.2819 34.7091C20.2819 38.891 17.7728 42.4455 14.0091 44.1182C10.2455 45.791 5.85459 44.9546 2.92731 42.0273C4.18574e-05 39.1 -0.836322 34.7091 0.627315 30.9455C2.09095 27.1819 5.85459 24.6728 10.0364 24.6728H20.2819V34.7091Z" fill="#444444"/>
</g>
<defs>
<clipPath id="clip0_1_8527">
<rect width="184" height="46" fill="white"/>
</clipPath>
</defs>
</svg>
