<svg width="126" height="60" viewBox="0 0 126 60" fill="none" xmlns="http://www.w3.org/2000/svg">
<g clip-path="url(#clip0_1_8465)">
<path d="M21.54 60C21.0106 59.9162 20.4758 59.8563 19.9528 59.7419C17.5627 59.2192 15.8545 57.8102 14.9609 55.5354C13.646 52.1848 13.5563 48.7437 14.7243 45.3408C15.7594 42.3321 18.2726 40.5822 21.4233 40.5495C22.3917 40.5262 23.3595 40.619 24.3061 40.8261C26.9068 41.4381 28.5838 43.1466 29.3736 45.6697C30.3331 48.7383 30.3396 51.8526 29.2991 54.9016C28.2747 57.9027 26.1656 59.633 22.9749 59.9107C22.8533 59.9307 22.7333 59.9602 22.6162 59.9989L21.54 60ZM19.1003 50.0831C19.2829 51.4813 19.3834 52.7074 19.62 53.9064C19.7929 54.7775 20.3418 55.4363 21.2602 55.6704C22.6713 56.0287 23.9193 55.2762 24.3353 53.7604C24.7502 52.2196 24.8741 50.6138 24.7005 49.0269C24.6024 48.0966 24.4072 47.1794 24.1181 46.2904C24.0013 45.8953 23.7743 45.5424 23.4642 45.2737C23.1541 45.005 22.7738 44.8317 22.3688 44.7746C21.1057 44.5677 20.1235 45.11 19.7432 46.4624C19.4007 47.682 19.2894 48.9681 19.1003 50.0831Z" fill="#181818"/>
<path d="M124.854 59.4567C123.039 59.4676 121.224 59.4817 119.408 59.4882C117.895 59.4937 116.392 59.4882 114.849 59.4882V41.0777C114.966 41.0546 115.085 41.0393 115.204 41.032C118.279 41.032 121.354 41.032 124.43 41.032C124.572 41.0408 124.714 41.0583 124.854 41.0842V44.9979H119.804V48.3735H124.081V52.1924H119.799V55.5398H124.854V59.4567Z" fill="#181818"/>
<path d="M110.065 60C109.322 59.877 108.568 59.804 107.842 59.6211C106.069 59.1735 104.473 58.1907 103.269 56.8044C102.065 55.4181 101.31 53.6943 101.104 51.8636C100.875 49.9296 100.9 48.0088 101.684 46.2011C103.232 42.6469 106.006 40.7837 109.826 40.5681C110.997 40.5028 112.183 40.677 113.392 40.7489V45.244L111.801 44.9685C108.335 44.3619 106.507 46.9601 106.301 49.4799C106.218 50.5155 106.286 51.5489 106.643 52.5289C107.407 54.6447 109.379 55.8142 111.652 55.4886C112.219 55.4069 112.78 55.2839 113.424 55.1619V59.5547L111.047 59.9902L110.065 60Z" fill="#181818"/>
<path d="M9.55727 60C8.92086 59.8977 8.27904 59.8247 7.6502 59.6897C3.81985 58.8632 1.01057 55.6781 0.59134 51.7405C0.440071 50.3249 0.433588 48.9191 0.76638 47.5296C1.73126 43.5006 5.16074 40.6868 9.34657 40.5659C10.52 40.5322 11.6988 40.6868 12.8906 40.7565V45.244C12.3568 45.1525 11.8349 45.0654 11.3141 44.9739C7.8382 44.3587 5.97219 46.9601 5.78959 49.5779C5.71287 50.6723 5.80904 51.7557 6.23475 52.7761C7.05052 54.7361 8.96408 55.8055 11.138 55.4984C11.7064 55.4178 12.2682 55.2948 12.8744 55.1837V59.5753L10.5286 60.0044L9.55727 60Z" fill="#181818"/>
<path d="M68.3057 32.9935L70.8719 39.3637C70.511 39.1699 70.283 39.0512 70.0604 38.9281C66.7109 37.0519 63.3754 35.167 60.0183 33.3114C59.6434 33.1125 59.2265 33.0072 58.8028 33.0044C50.6184 32.9869 42.433 32.9826 34.2464 32.9913C31.1411 32.9913 28.7186 31.0105 28.1114 27.9539C28.0429 27.5253 28.0164 27.0909 28.0325 26.657C28.0271 19.9361 28.0736 13.2142 28.0098 6.49437C27.9785 3.13938 30.3264 0.781847 32.7997 0.314697C33.275 0.217227 33.7582 0.164009 34.2432 0.155713C51.9633 0.148454 69.6833 0.148454 87.4034 0.155713C90.472 0.155713 92.8815 2.07441 93.5385 5.07441C93.6588 5.69586 93.7127 6.3285 93.6995 6.96152C93.711 13.3753 93.7128 19.7884 93.7049 26.2007C93.7049 27.7873 93.4412 29.2965 92.4266 30.5913C91.1992 32.1561 89.5882 32.9804 87.6271 32.9869C81.4564 33.0142 75.2857 32.9967 69.115 32.9967L68.3057 32.9935ZM44.9855 17.7615C45.0362 17.8225 45.0665 17.8443 45.0773 17.8704C45.1075 17.9554 45.1302 18.0425 45.1562 18.1285C46.161 21.3953 47.4068 24.5532 49.4781 27.2984C50.0929 28.114 50.7693 28.9263 51.5635 29.5535C52.9811 30.6719 54.5889 29.976 54.913 28.1945C54.9486 27.9056 54.959 27.6142 54.9443 27.3234C54.9443 26.0374 54.8579 24.7426 54.9724 23.4664C55.1885 21.0588 55.4565 18.6501 55.826 16.2621C56.3187 13.0824 56.9162 9.92123 58.3695 6.99963C58.792 6.15027 58.6861 5.2911 58.0713 4.56261C57.423 3.78729 56.5737 3.47368 55.5592 3.71216C54.8028 3.88747 54.3609 4.40036 54.0292 5.0548C52.4484 8.17241 51.7547 11.5492 51.1929 14.9641C50.9573 16.3949 50.7899 17.8377 50.5792 19.372C50.4895 19.1488 50.4246 19.0203 50.3868 18.8853C49.7785 16.751 49.1594 14.6189 48.5748 12.478C48.3144 11.523 48.2075 10.518 47.8866 9.58693C47.3463 8.02867 45.5948 7.70417 44.4679 8.91179C44.1903 9.22011 43.9542 9.56389 43.7656 9.9343C42.6343 12.0751 41.5214 14.2269 40.4009 16.3742C39.6176 17.8748 38.8331 19.3753 38.0238 20.9183C37.978 20.8187 37.9397 20.7156 37.9093 20.6102C37.0708 16.1412 36.2353 11.6719 35.4026 7.20217C35.2502 6.38003 35.18 5.50236 34.3415 5.06025C33.4069 4.56914 32.442 4.6421 31.5863 5.24319C30.7845 5.80508 30.562 6.66751 30.7154 7.60508C31.1562 10.2947 31.543 12.9953 32.0984 15.6632C32.8472 19.2664 33.6975 22.8501 34.5835 26.4207C34.8277 27.4007 35.274 28.3644 35.7786 29.2519C36.3102 30.1862 37.1832 30.331 38.0303 29.6777C38.6051 29.2323 39.181 28.6976 39.543 28.0835C40.6235 26.2508 41.623 24.367 42.6148 22.4809C43.4339 20.9325 44.1902 19.3524 44.9855 17.7615ZM90.4645 15.2984C90.431 13.9666 90.2689 12.6294 89.8064 11.3379C88.7421 8.3608 86.364 6.59237 83.4024 6.57386C80.9118 6.55862 79.0307 7.71506 77.5979 9.67513C75.2457 12.8929 74.4267 16.5212 74.968 20.4468C75.2295 22.3459 75.9524 24.0828 77.3959 25.4112C80.1706 27.9648 84.6168 27.6381 87.1301 24.6762C89.4056 21.9964 90.3867 18.8221 90.4645 15.2984ZM65.0524 27.1285C65.3916 27.1034 65.7341 27.1002 66.0713 27.0512C68.202 26.7365 69.7568 25.5267 70.954 23.7964C72.2818 21.8966 73.13 19.6992 73.4251 17.3946C73.7039 15.2472 73.6099 13.1477 72.847 11.1005C70.9443 5.99564 64.6709 5.14628 61.517 8.77241C58.0292 12.7829 57.0319 17.4359 58.6677 22.518C59.624 25.4907 62.0616 27.1067 65.0524 27.1285Z" fill="#181818"/>
<path d="M36.3566 47.1202C35.9471 51.2233 35.5376 55.3263 35.1249 59.4566H30.4409C31.2178 53.3216 31.9925 47.2095 32.7715 41.0657H39.0578C39.7407 44.3782 40.4268 47.7082 41.1302 51.1198C41.4479 49.543 41.7288 48.0479 42.0519 46.5626C42.4257 44.8487 42.8298 43.1423 43.2404 41.4381C43.2782 41.2813 43.4846 41.0494 43.6154 41.0483C45.6283 41.0233 47.6424 41.0309 49.7277 41.0309C50.5586 47.1757 51.3787 53.302 52.2085 59.4893H48.7682C47.2901 59.4893 47.2934 59.4893 47.1475 58.0116C46.7769 54.392 46.403 50.7735 45.959 47.13C45.9146 47.2661 45.8617 47.3989 45.8282 47.5372C44.8975 51.3674 43.9716 55.1982 43.0503 59.0298C42.966 59.3815 42.8342 59.5078 42.4798 59.4969C41.6888 59.473 40.8958 59.4686 40.1027 59.4969C39.7115 59.5111 39.5473 59.3935 39.4544 58.996C38.5036 55.1521 37.5279 51.3147 36.5587 47.4762C36.5284 47.3576 36.4863 47.241 36.4506 47.1245L36.3566 47.1202Z" fill="#181818"/>
<path d="M58.7704 47.0951C58.3609 51.1971 57.9525 55.2991 57.5386 59.4435H52.8601C53.0146 58.1989 53.1637 56.9673 53.3204 55.7412C53.847 51.5742 54.375 47.4072 54.9044 43.2403C54.979 42.6479 55.0643 42.0566 55.1205 41.4631C55.1497 41.1593 55.248 41.021 55.5829 41.0276C57.3993 41.0417 59.2166 41.0515 61.033 41.0221C61.4997 41.0145 61.503 41.3118 61.5624 41.5982C62.1855 44.6268 62.8057 47.6559 63.423 50.6853C63.431 50.735 63.4502 50.7822 63.4793 50.8232C63.5083 50.8642 63.5464 50.8979 63.5905 50.9216C63.7839 49.9241 63.9579 48.9223 64.1761 47.9292C64.6494 45.7753 65.1485 43.6279 65.6229 41.474C65.7007 41.119 65.8574 41.0221 66.2053 41.0265C68.0227 41.0424 69.8393 41.0424 71.6553 41.0265C72.0151 41.0265 72.1383 41.1288 72.1869 41.5023C72.9526 47.2969 73.7295 53.0896 74.5175 58.8806C74.5413 59.057 74.5434 59.2355 74.5596 59.4544H69.6909C69.2587 55.347 68.8291 51.2352 68.4019 47.119L68.3112 47.1114C67.3236 51.2243 66.3371 55.3383 65.3398 59.4904C64.2863 59.4904 63.2631 59.5056 62.242 59.4708C62.1188 59.4708 61.9395 59.2105 61.8952 59.0417C61.2793 56.6624 60.6818 54.2777 60.08 51.8951L58.8785 47.1114L58.7704 47.0951Z" fill="#181818"/>
<path d="M92.4482 59.4577H87.5168V41.0951C87.5664 41.0701 87.6191 41.0521 87.6735 41.0417C90.2062 41.0886 92.741 41.0907 95.2715 41.2084C96.4255 41.2617 97.5082 41.7136 98.486 42.3648C101.668 44.4828 101.511 49.0672 98.2018 50.9673C98.0938 51.0294 97.9857 51.0871 97.8021 51.1851C99.0986 53.926 100.395 56.6548 101.726 59.461C101.485 59.4741 101.316 59.4904 101.147 59.4904C99.7804 59.4904 98.4136 59.4751 97.0414 59.5013C96.6427 59.5089 96.4417 59.3837 96.2699 59.0178C95.1214 56.5644 93.9469 54.1176 92.7799 51.6795C92.7073 51.5031 92.5913 51.3483 92.4428 51.2298L92.4482 59.4577ZM92.4342 49.0606C93.1808 48.9016 93.8842 48.8036 94.5541 48.5967C95.224 48.3898 95.6346 47.8813 95.6746 47.1583C95.7124 46.396 95.5892 45.6621 94.9085 45.184C94.1716 44.6668 93.318 44.6319 92.4342 44.6025V49.0606Z" fill="#181818"/>
<path d="M85.3506 48.3507C85.3506 49.5757 85.3506 50.6973 85.3506 51.8189C85.3506 51.9278 85.3387 52.0301 85.3301 52.1891H81.02V55.5724H86.0076C86.0343 55.7252 86.0531 55.8794 86.0637 56.0341C86.0637 57.049 86.0637 58.0628 86.0637 59.0777C86.0637 59.3292 86.0638 59.5383 85.7115 59.5372C82.5273 59.5231 79.3442 59.5209 76.161 59.5144C76.1459 59.5144 76.1308 59.4969 76.0681 59.4599V41.1115H85.9795V44.9902H81.006V48.3507H85.3506Z" fill="#181818"/>
<path d="M85.7676 15.2624C85.7298 17.4991 85.3354 19.249 84.188 20.7278C83.7703 21.2453 83.2642 21.6834 82.6936 22.0214C81.7893 22.5659 80.9238 22.3165 80.3814 21.4062C79.6088 20.1125 79.3571 18.7067 79.5062 17.1964C79.6703 15.4771 80.3349 13.8451 81.4165 12.5053C81.6738 12.1813 81.9771 11.8973 82.3165 11.6624C83.2803 10.996 84.2971 11.2269 84.9022 12.232C85.5299 13.2795 85.8011 14.4272 85.7676 15.2624Z" fill="#181818"/>
<path d="M68.9056 15.6588C68.8364 17.5732 68.4345 19.3884 67.1822 20.8988C66.8089 21.3378 66.3665 21.712 65.8726 22.0062C64.9574 22.5594 64.0725 22.3198 63.5031 21.4062C62.6884 20.0995 62.4874 18.6381 62.6311 17.1343C62.7858 15.4851 63.419 13.9182 64.4518 12.6294C64.7474 12.244 65.1006 11.9071 65.4988 11.6309C66.4388 11.0058 67.4188 11.2313 68.0066 12.1939C68.6414 13.2331 68.9544 14.4395 68.9056 15.6588Z" fill="#181818"/>
</g>
<defs>
<clipPath id="clip0_1_8465">
<rect width="126" height="60" fill="white"/>
</clipPath>
</defs>
</svg>
