<svg width="209" height="60" viewBox="0 0 209 60" fill="none" xmlns="http://www.w3.org/2000/svg">
<path d="M184.24 59.9999C183.637 58.1613 183.062 56.3121 182.415 54.4895C182.214 53.9174 182.526 53.8448 182.894 53.7031C185.697 52.6262 188.014 50.9399 189.684 48.3893C189.935 48.0344 190.109 47.6306 190.197 47.2036C190.284 46.7766 190.283 46.3359 190.192 45.9096C188.855 38.7803 187.55 31.6421 186.227 24.5128C185.99 23.2287 185.976 23.2322 187.236 23.2322C189.074 23.2322 190.916 23.2517 192.749 23.2198C193.315 23.2198 193.481 23.397 193.534 23.9638C194.042 29.258 194.585 34.5488 195.111 39.8395C195.128 40.006 195.09 40.1937 195.286 40.3106C195.503 40.1743 195.516 39.9245 195.584 39.719C197.37 34.4389 199.395 29.2492 201.367 24.0399C201.602 23.4182 201.906 23.2003 202.569 23.2145C204.689 23.2588 206.813 23.2322 209 23.2322C208.966 23.4043 208.92 23.5736 208.861 23.7388C205.334 31.1497 202.138 38.7201 198.347 45.9999C196.595 49.3653 194.562 52.5535 191.936 55.3131C189.922 57.428 187.555 58.9885 184.751 59.8369C184.683 59.8582 184.634 59.945 184.576 59.9999H184.24Z" fill="#181818"/>
<path d="M35.9653 58.9459C35.9653 41.5877 35.9653 24.2294 35.9653 6.87112C36.3719 6.82507 36.5997 7.11201 36.8415 7.35644C37.7807 8.27926 38.7393 9.18438 39.6452 10.1373C39.833 10.3581 40.0688 10.5319 40.3343 10.645C40.5997 10.7581 40.8875 10.8074 41.175 10.7891C42.1055 10.7484 43.0412 10.8405 43.9787 10.8068C44.8338 10.775 45.2299 11.1062 45.3508 11.983C45.8677 15.7309 46.4355 19.4736 46.9839 23.2162C47.8321 28.9929 48.6796 34.7683 49.5266 40.5426C50.1924 45.0699 50.8495 49.5973 51.5382 54.121C51.6486 54.849 51.5189 55.1997 50.7234 55.391C46.0815 56.5051 41.4554 57.6848 36.8222 58.8343C36.5389 58.8876 36.2528 58.9248 35.9653 58.9459Z" fill="#181818"/>
<path d="M93.0528 48.5222C93.7853 44.6042 94.5107 40.7694 95.2134 36.9293C95.5639 34.9969 96.0545 33.0822 96.0212 31.0842C95.9827 28.7019 94.2812 27.7188 92.2187 28.9215C91.0692 29.5928 90.3227 30.6379 89.6901 31.7803C88.5739 33.796 88.2146 36.0313 87.7941 38.256C87.1948 41.4301 86.5902 44.6024 86.0155 47.78C85.9138 48.3433 85.7106 48.547 85.1165 48.5346C83.2503 48.4903 81.3823 48.4956 79.5091 48.5346C78.901 48.547 78.7696 48.3575 78.8783 47.7818C80.7217 38.1202 82.5552 28.4563 84.3788 18.79C84.7608 16.7707 85.1533 14.7533 85.5055 12.7287C85.6002 12.1885 85.8087 12.0043 86.3607 12.0202C88.2298 12.0533 90.099 12.0533 91.9681 12.0202C92.613 12.0096 92.7409 12.1814 92.613 12.8297C91.7473 17.2082 90.9272 21.5938 90.0931 25.9795C90.0851 26.0714 90.0851 26.1639 90.0931 26.2558C90.4261 26.277 90.5137 25.983 90.6731 25.8165C92.4255 23.9868 94.4897 22.8745 97.0341 22.6672C100.605 22.375 103.137 24.5394 103.383 28.1493C103.542 30.4926 103.118 32.774 102.682 35.0571C101.865 39.3241 101.068 43.5963 100.262 47.8668C100.206 48.1662 100.262 48.5328 99.7624 48.5293C97.5422 48.5116 95.3291 48.5222 93.0528 48.5222Z" fill="#181818"/>
<path d="M167.975 48.5222C168.578 45.2738 169.163 42.105 169.757 38.9362C170.36 35.7356 170.956 32.5314 171.592 29.3378C171.723 28.6736 171.527 28.5124 170.912 28.5549C170.297 28.5974 169.628 28.546 168.984 28.5708C168.534 28.5868 168.434 28.3937 168.518 27.9881C168.807 26.5498 169.093 25.1098 169.349 23.6663C169.423 23.2553 169.615 23.1349 169.997 23.1349C170.698 23.1526 171.399 23.1118 172.1 23.1473C172.617 23.1738 172.801 22.979 172.878 22.4653C173.107 20.8948 173.542 19.3621 174.171 17.9079C176.052 13.6055 179.863 11.2604 184.582 11.5314C185.485 11.5583 186.383 11.6914 187.256 11.9282C187.673 12.0521 187.845 12.2204 187.729 12.6685C187.342 14.1741 186.96 15.6797 186.602 17.1941C186.502 17.6121 186.313 17.6635 185.922 17.5944C182.644 17.0117 180.851 18.2214 180.084 21.5089C179.703 23.1384 179.703 23.1384 181.328 23.1384C182.23 23.1384 183.134 23.1579 184.039 23.1384C184.515 23.1242 184.662 23.2943 184.564 23.7601C184.293 25.1771 184.023 26.5853 183.785 28.0111C183.713 28.4433 183.536 28.5886 183.101 28.5797C181.906 28.5514 180.709 28.5992 179.514 28.5567C178.973 28.5372 178.75 28.7214 178.652 29.2528C177.547 35.2266 176.431 41.1987 175.305 47.169C175.237 47.454 175.183 47.7425 175.146 48.0334C175.114 48.4018 174.949 48.5346 174.585 48.5329C172.408 48.5222 170.225 48.5222 167.975 48.5222Z" fill="#181818"/>
<path d="M66.9952 48.9685C64.251 48.9809 62.129 48.5523 60.1068 47.6224C59.5811 47.3779 59.3708 47.1211 59.6162 46.5012C60.091 45.302 60.4923 44.0763 60.8848 42.8453C61.0601 42.2998 61.2353 42.1758 61.7855 42.4432C63.2076 43.1318 64.7421 43.552 66.3135 43.6831C66.9803 43.7526 67.6541 43.687 68.2954 43.4901C70.0477 42.9162 70.5734 41.0298 69.3976 39.5933C68.907 38.9964 68.2691 38.5819 67.6295 38.1763C66.9899 37.7707 66.2925 37.3385 65.6512 36.8815C60.3066 33.0875 62.3323 26.8651 66.2119 24.4827C69.0507 22.7381 72.1382 22.5202 75.324 22.8496C76.3117 22.941 77.2817 23.1736 78.2048 23.5404C78.6779 23.7335 78.8882 23.939 78.6762 24.5164C78.2083 25.7793 77.8123 27.0705 77.4232 28.3618C77.2813 28.8347 77.0868 28.9339 76.6312 28.7515C75.2229 28.1701 73.7012 27.924 72.1838 28.0323C71.629 28.0658 71.0893 28.2282 70.6067 28.507C69.3801 29.2279 69.1488 30.6502 70.0688 31.7413C70.5489 32.3099 71.1692 32.696 71.8036 33.0627C72.7408 33.5995 73.6402 34.2014 74.4951 34.8641C79.151 38.4969 77.3864 44.5386 74.0027 46.8678C72.0752 48.1963 69.6149 48.9243 66.9952 48.9685Z" fill="#181818"/>
<path d="M158.228 48.5224C157.324 48.5224 156.415 48.4568 155.518 48.5401C154.62 48.6233 154.764 48.1451 154.869 47.5942C155.509 44.2501 156.144 40.9048 156.772 37.5583C157.633 33.031 158.504 28.5054 159.341 23.9728C159.438 23.4521 159.578 23.2112 160.154 23.22C162.078 23.2519 164.003 23.2519 165.928 23.22C166.501 23.2112 166.615 23.3972 166.51 23.9427C164.983 31.8696 163.469 39.7989 161.968 47.7306C161.859 48.308 161.684 48.5879 161.027 48.5383C160.1 48.4692 159.162 48.5224 158.228 48.5224Z" fill="#181818"/>
<path d="M168.154 15.9151C168.166 18.3683 166.429 20.113 163.973 20.113C161.929 20.113 160.592 18.7208 160.585 16.5847C160.585 14.2342 162.338 12.4134 164.616 12.3957C166.678 12.3886 168.143 13.8357 168.154 15.9151Z" fill="#181818"/>
<path fill-rule="evenodd" clip-rule="evenodd" d="M140.029 26.4206C139.9 26.5684 139.761 26.7277 139.605 26.9024C139.652 26.4651 139.694 26.0554 139.735 25.6637C139.804 24.9909 139.868 24.3713 139.941 23.7567C140.003 23.2784 139.885 23.0694 139.36 23.0783C137.696 23.109 136.034 23.109 134.373 23.0783C133.833 23.0694 133.691 23.2838 133.633 23.7868C133.11 28.3852 132.24 32.926 131.37 37.4657C131.218 38.2611 131.066 39.0564 130.915 39.8521C130.807 40.4271 130.699 41.0021 130.59 41.5771C129.574 46.9732 128.557 52.3703 127.512 57.763C127.36 58.5494 127.588 58.6911 128.313 58.6698C130.013 58.6202 131.709 58.5884 133.395 58.6805C134.316 58.7301 134.558 58.351 134.697 57.5415C135.011 55.6913 135.353 53.846 135.695 52.0012C135.894 50.9302 136.093 49.8595 136.286 48.788C136.293 48.7521 136.298 48.7164 136.304 48.6817C136.359 48.3429 136.402 48.0802 136.971 48.2938C141.017 49.8153 144.839 49.137 148.048 46.388C153.575 41.6516 155.323 35.4222 154.065 28.3549C153.571 25.5793 151.917 23.5034 149.015 22.864C145.724 22.1413 143.003 23.3139 140.707 25.6714C140.485 25.8981 140.275 26.1385 140.029 26.4206ZM143.868 41.8039C146.068 39.1825 146.884 36.0385 147.119 32.6962C147.142 31.8703 147.008 31.0476 146.723 30.2731C146.281 29.1005 145.379 28.5319 144.151 28.5691C142.922 28.6063 142.009 29.2652 141.233 30.1385C139.996 31.5271 139.272 33.1939 138.899 34.9935C138.677 36.0669 138.486 37.1471 138.296 38.227C138.085 39.4281 137.874 40.6289 137.618 41.8199C137.458 42.5815 137.734 42.8755 138.319 43.1625C140.301 44.1296 142.291 43.6886 143.868 41.8039Z" fill="#181818"/>
<path fill-rule="evenodd" clip-rule="evenodd" d="M111.673 25.2286C107.234 28.6436 105.501 33.387 105.289 37.9816C105.27 44.1544 108.014 47.8864 112.726 48.8057C116.106 49.4646 119.281 48.7951 122.168 46.8981C128.225 42.9092 129.983 34.4993 128.669 29.5398C127.673 25.7759 125.259 23.4272 121.414 22.809C117.862 22.2369 114.55 23.0198 111.673 25.2286ZM119.989 40.2506C121.095 37.995 121.712 35.5271 121.799 33.0115C121.81 32.0692 121.791 31.2774 121.55 30.5051C120.911 28.3903 118.819 27.5188 116.87 28.5568C116.179 28.9422 115.585 29.4842 115.135 30.1403C113.854 31.9133 113.19 33.9414 112.803 36.0669C112.501 37.7248 112.319 39.3933 112.815 41.0441C113.586 43.6248 116.283 44.374 118.284 42.578C118.994 41.9195 119.573 41.1295 119.989 40.2506Z" fill="#181818"/>
<path fill-rule="evenodd" clip-rule="evenodd" d="M33.1389 58.4756L33.1377 58.4755L33.1355 58.4751L33.1351 58.475L33.1346 58.4749C31.1164 58.1401 29.0984 57.8052 27.0828 57.4564C23.927 56.9103 20.7725 56.3611 17.6182 55.8119L17.6154 55.8114C12.0956 54.8504 6.57616 53.8895 1.05036 52.9451C0.212749 52.8016 -0.102669 52.6103 0.0287553 51.6237C1.06925 43.8391 2.0659 36.0485 3.06256 28.2578C3.27777 26.5755 3.49298 24.8933 3.70863 23.211C3.78036 22.6578 3.85378 22.1047 3.92721 21.5516C4.10133 20.24 4.27548 18.9283 4.42708 17.6139C4.52521 16.7708 4.95278 16.2978 5.74483 16.0587C6.51102 15.8264 7.27721 15.5856 8.04442 15.3445C9.03187 15.0341 10.021 14.7232 11.0141 14.4292C11.6116 14.2521 11.8902 13.9456 12.0357 13.3027C13.0625 8.92235 14.8937 4.97778 18.344 1.96665C19.6758 0.804705 21.2213 0.0731779 23.021 0.00764154C23.6493 -0.0287809 24.2784 0.0652696 24.8693 0.283994C25.4603 0.502719 26.0008 0.841481 26.4573 1.2794C26.7184 1.52737 26.9689 1.73107 27.3632 1.73107C29.6903 1.73107 31.2288 3.0046 32.3433 4.91932C32.6798 5.47012 32.9531 6.05783 33.1581 6.67109C33.3597 7.33177 33.6926 7.40262 34.2586 7.1883L34.2885 7.17697C34.8434 6.96677 35.3662 6.76868 35.9601 6.87656C36.0924 6.99231 36.1977 7.13616 36.2686 7.29783C36.3395 7.4595 36.3741 7.63499 36.3702 7.81178C36.3894 8.16603 36.3947 8.52028 36.3947 8.87453C36.3947 24.9044 36.3918 40.9342 36.3859 56.964C36.3866 57.0887 36.3937 57.2162 36.4008 57.3448C36.4321 57.9071 36.4645 58.4905 35.9654 58.9461C35.0241 58.7884 34.0826 58.6322 33.1412 58.476L33.1401 58.4758L33.1389 58.4756ZM24.6294 2.3936C22.0535 4.03732 20.6096 6.50999 19.5863 9.28555C19.5619 9.35036 19.5369 9.41542 19.5118 9.4807C19.3566 9.88461 19.1981 10.2971 19.1604 10.7149C19.0623 11.7777 18.4595 12.1957 17.4957 12.4118C16.7337 12.5827 15.9891 12.8355 15.2456 13.0879L15.2456 13.088C15.0488 13.1548 14.8521 13.2216 14.6552 13.2868C14.1435 13.4639 13.9087 13.3559 14.0787 12.7802C15.1879 9.02517 16.8526 5.60842 19.9805 3.10918C20.9899 2.30326 22.1411 1.83388 23.4624 1.93307L23.4815 1.93451C23.8768 1.96407 24.2828 1.99444 24.6294 2.3936ZM25.6246 9.85759C26.9441 9.44489 26.9441 9.44312 26.8915 8.03852C26.8682 6.95028 26.6924 5.87088 26.3693 4.83255C26.0662 3.8495 25.9382 3.79814 25.1339 4.38088C22.9681 5.95553 21.9026 8.25638 21.1036 10.7202C20.9161 11.2852 21.2665 11.2144 21.617 11.1081C22.954 10.6919 24.3051 10.2703 25.6246 9.85759ZM28.1501 4.1382C28.0965 3.65405 28.3824 3.77183 28.6257 3.87204L28.6355 3.87606C29.5677 4.25865 30.1933 4.976 30.698 5.82443C31.8913 7.82595 31.6758 8.28824 29.3802 8.69209C29.0823 8.74346 28.837 8.76648 28.8212 8.38389C28.7824 6.94506 28.5568 5.51762 28.1501 4.1382ZM10.2099 46.333C12.2948 47.9356 14.8489 48.7896 17.468 48.7596C19.2168 48.7702 20.4154 48.5311 21.6385 47.9289C25.0345 46.2497 26.8605 42.1085 26.0859 37.9496C25.5988 35.3335 24.0112 33.5428 21.9364 32.0815C21.5478 31.807 21.1478 31.5488 20.7477 31.2906C19.9679 30.7874 19.188 30.2841 18.4931 29.6602C17.0965 28.4115 17.3383 26.4418 19.003 25.5863C19.3943 25.389 19.8115 25.2495 20.2419 25.1718C21.7741 24.9065 23.3481 25.0475 24.8102 25.581C25.3605 25.7723 25.5848 25.6607 25.7267 25.0868C26.1613 23.3179 26.6286 21.5573 27.1286 19.8049C27.3196 19.1301 27.118 18.8396 26.4644 18.682C24.7612 18.2728 23.0562 18.3171 21.3354 18.5296C16.4744 19.1319 12.8244 22.2847 11.7625 26.8333C10.8302 30.8257 11.9096 33.7553 15.1935 36.1625C15.8769 36.6637 16.5603 37.1703 17.2192 37.7017C17.8267 38.1689 18.2809 38.8102 18.5229 39.542C19.0626 41.2548 18.0252 42.7161 16.2449 42.7303C15.7778 42.7315 15.3126 42.6719 14.8606 42.5531C13.6729 42.2323 12.5474 41.7113 11.5311 41.0121C10.9406 40.6189 10.6567 40.5888 10.5078 41.3983C10.2887 42.5815 10.0136 43.7594 9.6842 44.916C9.50897 45.5802 9.70698 45.9522 10.2099 46.333Z" fill="#444444"/>
</svg>
