<svg width="277" height="40" viewBox="0 0 277 40" fill="none" xmlns="http://www.w3.org/2000/svg">
<g clip-path="url(#clip0_1_8511)">
<path d="M32.4998 39.9863L30.2577 37.5424C31.3161 36.5616 32.4345 35.589 33.4875 34.5287C36.9187 31.0794 40.3445 27.6274 43.7294 24.1178C45.7729 22.0054 46.0205 19.1068 44.4641 16.8712C42.3281 13.8027 38.3581 13.4958 35.6398 16.2273C31.4096 20.4794 27.192 24.7452 22.9871 29.0246L20.2416 31.8191L17.76 29.1123C21.1831 25.7452 24.6877 22.315 28.1734 18.8657C29.9175 17.1397 31.6073 15.3561 33.3596 13.6383C37.0493 10.0164 42.6111 9.97803 46.1784 13.5178C49.7456 17.0575 49.917 22.7205 46.3035 26.4164C41.8111 30.9972 37.1636 35.4164 32.4998 39.9863Z" fill="#181818"/>
<path d="M18.1874 2.60275C13.7739 6.98631 9.27331 11.348 4.85437 15.8164C1.97281 18.7343 2.69388 23.1863 6.23121 25.0439C8.32912 26.1397 11.0447 25.6384 12.9467 23.7205C17.8772 18.7452 22.7968 13.7607 27.7055 8.76713C27.8633 8.60549 28.0293 8.4548 28.2497 8.24658L30.7639 10.9863C26.9137 14.7589 22.9192 18.6576 18.9357 22.5863C17.6377 23.8603 16.3997 25.1973 15.0827 26.4521C11.3168 30.0329 5.79585 29.9945 2.26124 26.3918C0.576133 24.6599 -0.363593 22.3294 -0.354426 19.905C-0.345259 17.4805 0.612066 15.1573 2.31022 13.4384C6.7346 8.92605 11.2569 4.51235 15.88 -0.0876465L18.1874 2.60275Z" fill="#181818"/>
<path d="M96.1093 27.7288L99.0452 31.737C96.7977 31.9096 94.9964 32.337 93.9842 30.2548C93.6141 29.4932 93.0835 29.7589 92.5039 29.9808C88.0687 31.5781 83.2524 30.0438 80.8661 26.2931C77.6444 21.2384 79.1927 13.6658 84.0633 11C87.5163 9.11234 91.059 9.16988 94.4032 11.2165C97.8453 13.326 98.9446 16.7315 98.8956 20.5945C98.8867 23.24 97.8924 25.7858 96.1093 27.7288ZM94.5154 24.0137C95.4641 21.6833 95.5086 18.98 94.6535 16.6137C93.7474 14.1206 91.8182 12.8356 89.2523 12.7288C86.8034 12.6274 84.8089 13.6658 83.7041 15.9534C82.262 18.9452 82.3218 21.9589 84.0388 24.8411C85.2143 26.8137 87.0483 27.6685 89.3094 27.5808C91.6413 27.4959 93.4372 26.4274 94.395 24.2932C94.4371 24.201 94.4771 24.1078 94.5154 24.0137Z" fill="#181818"/>
<path d="M162.415 29.874C161.367 29.874 160.459 29.9507 159.572 29.8411C159.11 29.7452 158.695 29.4893 158.402 29.1178C156.894 27.2383 155.357 25.3753 154.004 23.3863C153.158 22.1424 152.176 21.9562 150.799 22.3068V29.7699H147.471V9.96985C150.872 10.1644 154.309 10.1096 157.656 10.6383C159.999 11.0054 161.272 13.1041 161.384 15.4301C161.52 18.2274 160.478 20.1233 158.192 21.2274C157.751 21.4411 157.302 21.6329 156.734 21.8931C157.773 23.2082 158.831 24.4411 159.77 25.7644C160.679 27.0466 162.11 28.011 162.415 29.874ZM150.834 19.2712C152.576 19.1424 154.157 19.1205 155.705 18.8822C157.177 18.6548 158.01 17.5507 158.048 16.1425C158.086 14.7342 157.297 13.5753 155.795 13.3479C154.176 13.1041 152.513 13.1616 150.834 13.0739V19.2712Z" fill="#181818"/>
<path d="M143.172 29.8767C142.179 29.9186 141.184 29.9058 140.192 29.8384C139.869 29.8028 139.463 29.3836 139.327 29.0466C138.81 27.7836 138.358 26.4932 137.95 25.1918C137.719 24.4631 137.33 24.2137 136.565 24.2329C134.388 24.2822 132.212 24.274 130.035 24.2329C129.297 24.2329 128.873 24.3945 128.647 25.1699C128.304 26.348 127.741 27.4631 127.436 28.6494C127.189 29.622 126.742 30.0192 125.749 29.8904C125.058 29.8498 124.365 29.8498 123.673 29.8904C123.839 29.1206 123.894 28.4904 124.106 27.9206C126.182 22.3343 128.302 16.7617 130.364 11.1699C130.636 10.4055 131.006 10.074 131.833 10.1397C132.781 10.2383 133.737 10.2383 134.685 10.1397C135.839 9.98906 136.244 10.5507 136.59 11.5288C138.62 17.1288 140.712 22.7069 142.769 28.2987C142.931 28.8172 143.065 29.344 143.172 29.8767ZM136.568 21.2219C135.681 18.6274 134.876 16.2247 134.027 13.8247C133.926 13.5507 133.58 13.3589 133.352 13.1288C133.123 13.3617 132.808 13.5534 132.682 13.8329C132.414 14.4596 132.178 15.0997 131.975 15.7507C131.357 17.5315 130.748 19.3123 130.092 21.2302L136.568 21.2219Z" fill="#181818"/>
<path d="M238.816 29.8739C237.684 29.8739 236.737 29.9315 235.806 29.8383C235.534 29.8109 235.183 29.4027 235.061 29.0931C234.571 27.8712 234.108 26.6273 233.73 25.3726C233.488 24.5671 233.14 24.1972 232.231 24.2274C230.054 24.2986 227.877 24.2822 225.701 24.2274C224.944 24.2082 224.574 24.4274 224.34 25.178C223.858 26.7342 223.252 28.2548 222.707 29.8356H219.404C219.464 29.2973 219.568 28.7649 219.714 28.2438C221.809 22.6246 223.951 17.0109 226.011 11.3917C226.367 10.4109 226.827 10.0219 227.856 10.1315C229.151 10.2547 230.751 9.79721 231.665 10.4054C232.525 10.9863 232.685 12.6383 233.129 13.8301C234.89 18.5534 236.642 23.2803 238.383 28.0109C238.564 28.6228 238.708 29.2449 238.816 29.8739ZM225.796 21.1589H232.266C231.374 18.5616 230.549 16.126 229.687 13.7041C229.605 13.4712 229.265 13.1726 229.064 13.1863C228.927 13.2249 228.802 13.2943 228.696 13.3893C228.59 13.4842 228.508 13.6022 228.454 13.7342C227.564 16.1616 226.71 18.5917 225.796 21.1589Z" fill="#181818"/>
<path d="M59.9685 24.4849L63.0786 24.126C64.1208 26.8328 66.2241 27.9616 69.1003 27.1397C70.5451 26.726 71.258 25.7232 71.2771 24.3479C71.2771 22.9095 70.3846 22.241 69.1737 21.852C67.7969 21.4082 66.3983 21.0301 65.0378 20.5397C61.8134 19.3835 60.2569 17.3342 60.5181 14.6821C60.7903 11.8191 62.7167 9.99446 66.0554 9.4109C69.2499 8.86295 72.2104 9.95884 73.5709 12.3177C73.9627 12.9972 74.1314 13.8054 74.4498 14.6794L71.2988 14.978C69.8485 12.5753 68.254 11.8465 66.0473 12.5534C65.0078 12.8876 64.3357 13.5588 64.2133 14.6821C64.138 15.1643 64.2346 15.6578 64.4862 16.075C64.7377 16.4922 65.1278 16.8063 65.5874 16.9616C67.1792 17.6082 68.8173 18.1342 70.4281 18.7315C73.7777 19.9725 74.9096 21.4109 74.8416 24.3095C74.7736 27.1177 73.1655 29.0356 70.0118 29.9643C68.7753 30.3534 67.4689 30.4641 66.1853 30.2884C64.9016 30.1128 63.6719 29.6551 62.5834 28.9479C60.9753 27.9397 60.2406 26.378 59.9685 24.4849Z" fill="#181818"/>
<path d="M198.553 14.6904L195.353 14.9643C193.971 12.5835 192.273 11.7315 190.112 12.6164C189.364 12.9233 188.654 13.8137 188.355 14.6027C187.976 15.5945 188.627 16.4767 189.579 16.9123C190.605 17.3753 191.682 17.7342 192.741 18.1205C193.557 18.4164 194.373 18.6685 195.173 18.9835C197.209 19.8246 198.787 21.052 198.92 23.5205C199.059 26.1643 198.014 28.1096 195.699 29.3616C192.118 31.2794 186.991 30.2849 185.029 27.263C184.823 26.9635 184.651 26.6419 184.515 26.3041C184.317 25.7561 184.18 25.1835 183.971 24.5014L187.168 24.1205C188.477 26.9397 190.836 28.0438 193.353 27.0986C194.635 26.6164 195.345 25.7095 195.339 24.3041C195.339 22.9479 194.496 22.2602 193.326 21.8794C191.965 21.4328 190.556 21.0575 189.193 20.5589C185.87 19.3781 184.295 17.3123 184.567 14.6383C184.891 11.7233 186.896 9.78081 190.281 9.40273C193.138 9.08492 195.859 9.47943 197.56 12.2383C198.014 12.937 198.196 13.7835 198.553 14.6904Z" fill="#181818"/>
<path d="M104.553 9.72876H107.842C107.842 11.0247 107.842 12.2438 107.842 13.463C107.883 16.7041 107.842 19.9507 108.011 23.1808C108.169 26.0274 109.831 27.4794 112.479 27.4192C114.928 27.3644 116.612 25.6986 116.683 22.989C116.786 19.1534 116.729 15.3178 116.74 11.4822C116.74 10.9342 116.74 10.3863 116.74 9.75615H120.022C120.087 9.84656 120.179 9.92053 120.179 9.99176C120.16 14.5096 120.343 19.0329 120.054 23.5397C119.728 28.6247 116.577 30.4274 111.926 30.326C107.056 30.2219 104.525 27.537 104.484 22.6548C104.452 18.7288 104.484 14.8 104.484 10.874C104.479 10.5069 104.523 10.1534 104.553 9.72876Z" fill="#181818"/>
<path d="M166.741 29.8V10.1945H179.397V13.1287H170.17V18.2821H178.706V21.2958H170.143V26.841H179.503V29.8054L166.741 29.8Z" fill="#181818"/>
<path d="M277.006 29.8383H264.317V9.94519H276.959V12.8712H267.583V18.0767H276.29V21.0904H267.604V26.7589H277.011L277.006 29.8383Z" fill="#181818"/>
<path d="M207.59 22.2959V29.8082H204.167V10.3945C207.524 10.3945 210.871 10.1589 214.169 10.4658C217.031 10.7397 218.642 13.1233 218.683 16.2192C218.721 19.137 217.051 21.3096 214.204 21.8986C213.141 22.1052 212.064 22.2325 210.983 22.2795C209.911 22.3452 208.83 22.2959 207.59 22.2959ZM207.701 13.189V19.3863C209.394 19.3096 210.98 19.326 212.542 19.1397C214.248 18.937 215.173 17.8027 215.173 16.211C215.173 14.6192 214.153 13.3616 212.452 13.2192C210.887 13.0877 209.312 13.189 207.701 13.189Z" fill="#181818"/>
<path d="M259.302 15.2383C258.441 15.4837 257.566 15.6758 256.682 15.8137C256.48 15.807 256.282 15.7542 256.103 15.6593C255.923 15.5644 255.768 15.4298 255.648 15.2657C254.399 13.3479 252.606 12.526 250.429 12.6904C248.081 12.8794 246.348 14.1287 245.461 16.3808C244.405 19.0602 244.416 21.7397 245.776 24.3123C247.681 27.8931 252.851 28.4794 255.3 25.3178C256.067 24.3233 256.704 23.9671 257.844 24.3863C258.36 24.5298 258.887 24.6333 259.419 24.6959C258.5 28.3507 254.054 30.8411 249.605 30.2383C244.356 29.5287 241.001 25.4191 241.091 19.8C241.18 14.1808 244.797 10.1397 250.312 9.70134C254.249 9.39723 258.399 11.4822 259.302 15.2383Z" fill="#181818"/>
<path d="M37.0058 4.189L34.5923 6.44653C34.3719 6.24379 34.0726 5.98624 33.7923 5.70952C31.0033 2.95336 27.8714 2.9698 25.085 5.7835C20.4285 10.5104 15.7855 15.2493 11.1561 19.9999C10.8028 20.4283 10.4869 20.8867 10.2119 21.3698L7.23242 18.4684C10.6391 15.1808 13.986 11.9917 17.3002 8.75884C19.1178 6.98076 20.8702 5.13419 22.6552 3.32323C27.0741 -1.16444 32.927 -0.85484 37.0058 4.189Z" fill="#181818"/>
<path d="M11.5508 35.8987C12.3671 35.0767 13.1263 34.3233 13.9208 33.5288C14.514 34.0767 15.0337 34.663 15.6296 35.137C17.8989 36.9507 21.0254 36.6904 23.2485 34.4411C27.983 29.6575 32.6795 24.8356 37.3978 20.0247C37.7461 19.6685 38.0617 19.2795 38.5188 18.7644L41.0086 21.7781C37.9284 24.7617 34.6631 27.9041 31.3979 31.0849C29.6129 32.8356 27.8824 34.6466 26.1409 36.4356C21.5533 41.1644 15.9425 41.0083 11.5508 35.8987Z" fill="#181818"/>
</g>
<defs>
<clipPath id="clip0_1_8511">
<rect width="277" height="40" fill="white"/>
</clipPath>
</defs>
</svg>
