<svg width="90" height="90" viewBox="0 0 90 90" fill="none" xmlns="http://www.w3.org/2000/svg">
<rect width="90" height="90" rx="45" fill="#954CED"/>
<g clip-path="url(#clip0_1_8462)">
<path d="M54.8386 22.6354H47.2092V53.4718C47.2092 57.146 44.2749 60.1641 40.6232 60.1641C36.9715 60.1641 34.0371 57.146 34.0371 53.4718C34.0371 49.8634 36.9063 46.9108 40.4276 46.7797V39.0378C32.6677 39.1689 26.4077 45.5331 26.4077 53.4718C26.4077 61.4763 32.7981 67.906 40.6884 67.906C48.5786 67.906 54.969 61.4106 54.969 53.4718V37.6599C57.8382 39.7595 61.3594 41.0061 65.0763 41.0717V33.3297C59.338 33.1329 54.8386 28.409 54.8386 22.6354Z" fill="white"/>
</g>
<defs>
<clipPath id="clip0_1_8462">
<rect width="45.2706" height="45.2706" fill="white" transform="translate(22.6353 22.6354)"/>
</clipPath>
</defs>
</svg>
